<?xml version="1.0" standalone="no"?>
<!DOCTYPE svg PUBLIC "-//W3C//DTD SVG 20010904//EN"
 "http://www.w3.org/TR/2001/REC-SVG-20010904/DTD/svg10.dtd">
<svg version="1.0" xmlns="http://www.w3.org/2000/svg"
 width="700.000000pt" height="700.000000pt" viewBox="0 0 700.000000 700.000000"
 preserveAspectRatio="xMidYMid meet">
<metadata>
Created by potrace 1.14, written by Peter Selinger 2001-2017
</metadata>
<g transform="translate(0.000000,700.000000) scale(0.100000,-0.100000)"
fill="#000000" stroke="none">
<path d="M333 6948 c-57 -12 -109 -62 -119 -113 -14 -79 33 -218 125 -369 37
-59 165 -241 181 -256 3 -3 27 -32 54 -65 84 -102 227 -238 306 -290 41 -28
80 -52 85 -54 6 -2 29 -17 52 -32 23 -16 44 -29 47 -29 10 0 216 -128 281
-174 105 -76 169 -146 148 -167 -6 -6 -85 22 -219 77 -289 119 -400 149 -537
146 -247 -6 -312 -162 -163 -391 110 -170 225 -240 590 -363 110 -37 217 -81
351 -143 28 -13 102 -48 165 -77 63 -29 148 -64 188 -77 69 -23 89 -42 57 -55
-9 -3 -95 23 -193 58 -344 123 -421 144 -560 153 -101 7 -151 -7 -192 -54 -35
-39 -45 -85 -36 -164 8 -77 23 -105 93 -169 141 -130 365 -258 1012 -579 30
-15 7 -26 -50 -24 -37 1 -108 17 -192 43 -259 81 -302 92 -373 92 -59 0 -98
-27 -102 -70 -6 -59 91 -258 158 -324 38 -37 135 -94 255 -150 104 -49 111
-52 315 -141 344 -150 496 -241 513 -306 5 -19 3 -20 -22 -7 -25 13 -276 118
-372 156 l-46 18 46 -91 c25 -51 52 -108 59 -127 34 -89 48 -114 96 -165 90
-97 243 -169 476 -223 193 -45 273 -64 300 -69 151 -27 779 -253 987 -355 108
-53 129 -69 119 -93 -6 -18 -11 -17 -150 19 -154 41 -214 33 -260 -32 -115
-163 120 -410 619 -652 144 -70 141 -69 475 -180 525 -174 650 -252 950 -589
205 -231 353 -344 543 -416 189 -71 315 -23 368 142 24 77 34 290 18 398 -4
33 -11 82 -14 110 -4 27 -8 52 -10 55 -2 3 -6 26 -10 50 -3 25 -8 53 -11 62
-3 9 -6 25 -8 35 -24 120 -54 225 -141 498 -69 217 -103 337 -111 400 -3 22
-9 63 -13 91 -8 56 -7 217 2 274 4 19 24 118 47 220 22 102 43 201 46 220 3
19 7 40 9 47 24 71 21 373 -4 461 -6 18 -10 35 -10 37 0 3 -2 18 -5 33 -4 15
-8 37 -10 49 -24 126 -103 350 -175 498 -153 312 -454 697 -681 872 -82 63
-253 168 -350 215 -112 55 -250 118 -255 118 -10 0 -379 158 -510 218 -71 32
-151 69 -177 81 -72 33 -289 118 -433 171 -118 43 -548 187 -585 196 -94 22
-808 258 -1020 337 -360 135 -730 307 -1015 471 -120 69 -273 173 -305 206 -3
3 -43 34 -90 70 -47 35 -87 67 -90 70 -10 11 -166 107 -202 124 -106 48 -221
64 -315 44z"/>
</g>
</svg>
