<svg xmlns="http://www.w3.org/2000/svg" id="logotype" viewBox="0 0 255 70">
  <path d="M42.16,38.16c-.75-2.59-1.78-4.53-1.19-7.23.45-2,.93-3.41.54-5.56a16.38,16.38,0,0,0-4.15-8.26c-2.5-2.95-5.71-3.63-9.09-5.24-4.8-2.29-9.82-3.34-14.77-5.23A42.46,42.46,0,0,1,6.38,3.2C5.08,2.4,3.15.35,1.52.24-2.85,0,2.37,6,3.55,7s3.51,1.93,4.6,3.15l0,.14,0,0,0,0v0a.09.09,0,0,1,0,0l0,0,0,0H8.11L5.3,9.35l-.92-.24c-2.19-.46-3.63.41-2.06,2.67,1.06,1.52,3,1.86,4.6,2.47.38.14,2.06.93,3.26,1.49l.91.3a.13.13,0,0,1,.07.06.14.14,0,0,1,0,.09.09.09,0,0,1-.06.06.1.1,0,0,1-.09,0l.09.06C9.55,16,3.85,13,4.66,16.67c.27,1.24,5.4,3.63,6.89,4.41l.36.14a.1.1,0,0,1,.06.05.14.14,0,0,1,0,.09l-.06.07a.14.14,0,0,1-.09,0l0,0c-1.17.21-6.76-3-3.74,1.51.78,1.18,7.46,3.06,7.28,4.22-.05,0-.05-.05-.08-.07L12.4,25.88c1.08,1.69.54,2.47,2.62,3.42a32.49,32.49,0,0,0,4.48,1.2c.55.15,6.82,2.24,6.66,2.75s-2.14-.91-2.78.12c-1,1.65,2.71,3.56,3.82,4.15,2.43,1.29,5.33,1.51,7.58,3.16,1.58,1.17,2.58,3,4.26,4C44.44,48.12,43,41.18,42.16,38.16Z"/>
  <g>
    <path d="M42.74,69.73l2.8-14h5a4.3,4.3,0,0,1,2.83.8,3.35,3.35,0,0,1,1,2.7,5.94,5.94,0,0,1-.36,2.1,4.94,4.94,0,0,1-1,1.66,4.36,4.36,0,0,1-1.54,1.09,5,5,0,0,1-2,.39H46.52l-1,5.22ZM47,62.09h2.62a1.5,1.5,0,0,0,1.07-.35,2.13,2.13,0,0,0,.53-1.17c.08-.38.14-.67.17-.86a2.38,2.38,0,0,0,0-.49.89.89,0,0,0-1.06-1H47.8Z"/>
    <path d="M55.48,69.73l2.8-14H61L58.7,67.31h4.56l-.48,2.42Z"/>
    <path d="M73.58,69.73l-.2-3.44H69.46L68,69.73H65.06l6.6-14H75.3l1.08,14Zm-.48-9,0-2.54H72.8l-.88,2.54-1.36,3.36h2.7Z"/>
    <path d="M84.36,62.27l-.54-2.74h-.28l-.3,2.72-1.5,7.48h-2.6l2.8-14H85.2l1.56,7.46L87.3,66h.28l.3-2.72,1.5-7.48H92l-2.8,14H85.92Z"/>
    <path d="M101.38,69.73l1.08-5.38L100,55.77h2.82l1.46,5.88h.28l3.54-5.88h3l-5.92,8.76-1,5.2Z"/>
    <path d="M115.36,70a5.42,5.42,0,0,1-2.12-.36,3.3,3.3,0,0,1-1.33-1,3.7,3.7,0,0,1-.69-1.47,7.94,7.94,0,0,1-.2-1.8,12.91,12.91,0,0,1,.14-1.85c.1-.62.2-1.21.32-1.79a12.2,12.2,0,0,1,.83-2.56,7.07,7.07,0,0,1,1.33-1.95A5.51,5.51,0,0,1,115.51,56a6.69,6.69,0,0,1,2.45-.43,5.3,5.3,0,0,1,2.11.36,3.37,3.37,0,0,1,1.33,1,3.58,3.58,0,0,1,.7,1.47,7.41,7.41,0,0,1,.2,1.8,12.8,12.8,0,0,1-.14,1.85c-.09.62-.2,1.22-.32,1.79a11.48,11.48,0,0,1-.83,2.56,6.86,6.86,0,0,1-1.33,2,5.28,5.28,0,0,1-1.87,1.24A6.45,6.45,0,0,1,115.36,70Zm.36-2.42a3.49,3.49,0,0,0,1.18-.18,2,2,0,0,0,.87-.6,3.59,3.59,0,0,0,.64-1.14,12.53,12.53,0,0,0,.49-1.8l.42-2.1a7.5,7.5,0,0,0,.15-.84,5.58,5.58,0,0,0,0-.64,2.7,2.7,0,0,0-.46-1.75A1.82,1.82,0,0,0,117.6,58a3.49,3.49,0,0,0-1.18.18,2.13,2.13,0,0,0-.87.6,3.79,3.79,0,0,0-.64,1.14,12.53,12.53,0,0,0-.49,1.8l-.42,2.1c-.06.31-.12.59-.15.84a5.93,5.93,0,0,0,0,.64,2.74,2.74,0,0,0,.46,1.75A1.8,1.8,0,0,0,115.72,67.55Z"/>
    <path d="M129.42,55.77l-1.72,8.58c0,.23-.1.47-.14.73a4.88,4.88,0,0,0-.06.73,1.71,1.71,0,0,0,.45,1.35,2.12,2.12,0,0,0,1.41.39,2.54,2.54,0,0,0,.9-.14,1.58,1.58,0,0,0,.7-.48,2.93,2.93,0,0,0,.52-.92,9,9,0,0,0,.4-1.46l1.76-8.78h2.74l-1.76,8.78a13.07,13.07,0,0,1-.74,2.51,5.2,5.2,0,0,1-1.09,1.68,3.68,3.68,0,0,1-1.55.94,6.75,6.75,0,0,1-2.12.29,4.77,4.77,0,0,1-3.3-1,3.87,3.87,0,0,1-1-3,6.77,6.77,0,0,1,.07-1c.05-.32.11-.68.19-1.07l1.64-8.18Z"/>
    <path d="M140.08,69.73h-2.74l2.8-14h5a4.3,4.3,0,0,1,2.83.8,3.35,3.35,0,0,1,.95,2.7,5.42,5.42,0,0,1-.85,3.07,4.47,4.47,0,0,1-2.33,1.81l1.4,5.58h-2.88l-1.14-5.3h-1.94Zm4.14-7.62a1.47,1.47,0,0,0,1.07-.36,2.17,2.17,0,0,0,.53-1.17c.08-.38.14-.67.17-.86a2.45,2.45,0,0,0,0-.49,1.15,1.15,0,0,0-.23-.78,1.08,1.08,0,0,0-.83-.26H142.4l-.8,3.92Z"/>
    <path d="M158.66,69.73h-2.74l2.8-14h5a4.32,4.32,0,0,1,2.83.8,3.39,3.39,0,0,1,1,2.7,5.42,5.42,0,0,1-.85,3.07,4.47,4.47,0,0,1-2.33,1.81l1.4,5.58H162.8l-1.14-5.3h-1.94Zm4.14-7.62a1.47,1.47,0,0,0,1.07-.36,2.17,2.17,0,0,0,.53-1.17c.08-.38.14-.67.17-.86a3.52,3.52,0,0,0,.05-.49,1.15,1.15,0,0,0-.23-.78,1.08,1.08,0,0,0-.83-.26H161l-.8,3.92Z"/>
    <path d="M169,69.73l2.8-14H180l-.48,2.42h-5.4l-.66,3.26h4.76l-.48,2.42H173l-.7,3.44h5.58l-.48,2.42Z"/>
    <path d="M185.48,70a5.42,5.42,0,0,1-2.12-.36,3.3,3.3,0,0,1-1.33-1,3.7,3.7,0,0,1-.69-1.47,7.94,7.94,0,0,1-.2-1.8,12.91,12.91,0,0,1,.14-1.85c.09-.62.2-1.21.32-1.79a12.2,12.2,0,0,1,.82-2.56,7,7,0,0,1,1.3-1.95A5.4,5.4,0,0,1,185.54,56a6.35,6.35,0,0,1,2.4-.43,4.94,4.94,0,0,1,1.66.26,3.89,3.89,0,0,1,1.23.71,3.62,3.62,0,0,1,.83,1.07,4.69,4.69,0,0,1,.44,1.34l-2.46,1a2.26,2.26,0,0,0-.52-1.49,1.87,1.87,0,0,0-1.38-.47,3.59,3.59,0,0,0-1.19.18,2.1,2.1,0,0,0-.88.6,3.59,3.59,0,0,0-.64,1.14,12.53,12.53,0,0,0-.49,1.8l-.42,2.1a8.4,8.4,0,0,0-.15.84,5.93,5.93,0,0,0-.05.64,2.68,2.68,0,0,0,.46,1.75,1.79,1.79,0,0,0,1.46.55,3.64,3.64,0,0,0,1-.11,2,2,0,0,0,.76-.36,2.24,2.24,0,0,0,.59-.66,5.26,5.26,0,0,0,.48-1l2.34,1a5.88,5.88,0,0,1-2.12,2.64A6,6,0,0,1,185.48,70Z"/>
    <path d="M197.9,70a5.42,5.42,0,0,1-2.12-.36,3.3,3.3,0,0,1-1.33-1,3.7,3.7,0,0,1-.69-1.47,7.94,7.94,0,0,1-.2-1.8,12.91,12.91,0,0,1,.14-1.85c.09-.62.2-1.21.32-1.79a12.2,12.2,0,0,1,.83-2.56,6.86,6.86,0,0,1,1.33-1.95A5.51,5.51,0,0,1,198.05,56a6.65,6.65,0,0,1,2.45-.43,5.33,5.33,0,0,1,2.11.36,3.37,3.37,0,0,1,1.33,1,3.71,3.71,0,0,1,.7,1.47,7.94,7.94,0,0,1,.2,1.8A12.8,12.8,0,0,1,204.7,62c-.09.62-.2,1.22-.32,1.79a12,12,0,0,1-.83,2.56,6.86,6.86,0,0,1-1.33,2,5.37,5.37,0,0,1-1.87,1.24A6.45,6.45,0,0,1,197.9,70Zm.36-2.42a3.49,3.49,0,0,0,1.18-.18,2.13,2.13,0,0,0,.87-.6,3.59,3.59,0,0,0,.64-1.14,12.53,12.53,0,0,0,.49-1.8l.42-2.1a7.5,7.5,0,0,0,.15-.84,5.58,5.58,0,0,0,.05-.64,2.7,2.7,0,0,0-.46-1.75,1.82,1.82,0,0,0-1.46-.55,3.49,3.49,0,0,0-1.18.18,2.13,2.13,0,0,0-.87.6,3.59,3.59,0,0,0-.64,1.14,12.53,12.53,0,0,0-.49,1.8l-.42,2.1a8.4,8.4,0,0,0-.15.84,5.93,5.93,0,0,0,0,.64A2.68,2.68,0,0,0,196.8,67,1.79,1.79,0,0,0,198.26,67.55Z"/>
    <path d="M208.78,69.73l-1.2-14h2.76l.48,8.38-.12,3.08H211L212,64.15l3.66-8.38h2.92l-6.72,14Z"/>
    <path d="M218.56,69.73l2.8-14h8.14L229,58.19h-5.4L223,61.45h4.76l-.48,2.42h-4.76l-.7,3.44h5.58l-.48,2.42Z"/>
    <path d="M233,69.73h-2.74l2.8-14h5a4.32,4.32,0,0,1,2.83.8,3.39,3.39,0,0,1,.95,2.7,5.42,5.42,0,0,1-.85,3.07,4.47,4.47,0,0,1-2.33,1.81l1.4,5.58H237.1L236,64.43H234Zm4.14-7.62a1.47,1.47,0,0,0,1.07-.36,2.17,2.17,0,0,0,.53-1.17c.08-.38.14-.67.17-.86a3.52,3.52,0,0,0,0-.49,1.15,1.15,0,0,0-.23-.78,1.08,1.08,0,0,0-.83-.26h-2.58l-.8,3.92Z"/>
    <path d="M245.54,69.73l1.08-5.38-2.5-8.58h2.82l1.46,5.88h.28l3.54-5.88h3l-5.92,8.76-1,5.2Z"/>
  </g>
</svg>
